<?xml version="1.0" encoding="UTF-8"?>
<svg id="Vrstva_1" data-name="Vrstva 1" xmlns="http://www.w3.org/2000/svg" viewBox="0 0 48.34 94.1">
  <defs>
    <style>
      .cls-1 {
        fill: #7a6c5c;
      }
    </style>
  </defs>
  <path class="cls-1" d="M9.89,2.05L38.5,0l-.65,5.21c.06.26-.81,6.48,8.05,5.84,0,0,3.32,15.56,2.21,21.56-1.11,6-4.82,20.06-20.61,21.4-15.79,1.34-16.89-13.11-16.49-15.56,0,0,.31-3.23,1.54-5.13s1.72-2.94,3.55-4.31c2.17-1.62,6-3.12,9.94-2.32,0,0,10.15,2.53,9.12,10.66-1.03,8.13-12.33,7.32-14.62,3.37,0-.16-1.64-2.63,1.61-2.02,0,0,.83.33,1.41.84.44.38,1.91,1.1,2.99,1.14,2.5.11,5.21-1.37,4.7-4.45s-4.38-5.84-7.23-4.9c-2.84.95-10.03,7.19-5.41,15.12,0,0,3.62,6.41,15.91,1.22,0,0,10.32-4.47,10-25.43l-.11-7s-5.53.16-8.53-2.74c-3-2.9-3.21-8.63-3.21-8.63,0,0-21.13,1.33-22.8.26-1.82-1.17-.14-2.02,0-2.11Z"/>
  <g>
    <path class="cls-1" d="M6.96,34.62c.28-.4,1.55-6.19,12.67-10.77.49-.2,1.14-.58,1.67-.78,3.3-1.23-1-3.12-5.34-2.05-2.07.51-5.33,1.67-8.09,3.79-3,2.3-5.46,5.62-6.4,7.42,0,0-7.03,13.64,9.63,26.28.52.39,3.66,2.45,7.46,3.38,3.63.89,7.87.67,10.65.77,0,0,3.98-.15,6.53.56,2.74.77,4.12,2.48-1,4.4,0,0-4.45,1.19-7.71,2.08-4.97,1.36-8.71,3.49-9.2,7.34,0,0-1.07,3.91,8.09,5.37,3.68.59,2.79,2.03.88,3.47,0,0-4.46,1.83-3.2,5.91s4.37,1.71,3.9.87-1.9-2.87,2-5.13c3.9-2.26,4.74-6.26-2-7.92-3.6-.89-4.85-1.46-5.3-1.92-.2-.21-.32-.38-.33-.56,0-.08-.11-.96.48-1.58.66-.69,1.98-1.73,8.93-3.11,6.95-1.38,12.4-4.38,11.33-9.44,0,0-.95-6.32-13.19-4.9-2.9.34-8.1-.4-11.03-1.37-9.34-3.09-15.05-11.81-11.45-22.09Z"/>
    <path class="cls-1" d="M14.42,21.52s1.53-.59,3.52-.83c2.18-.27,4.89-.16,6.25.21,2.48.67,2.79,1.38,2.69,1.99s-.64.64-2.53.8c0,0-2.76.1-5.42.65-.71.15-1.9.68-2.53.88"/>
  </g>
</svg>